<?xml version="1.0" encoding="utf-8"?>
<!-- Generator: Adobe Illustrator 27.5.0, SVG Export Plug-In . SVG Version: 6.00 Build 0)  -->
<svg version="1.1" id="Layer_1" xmlns="http://www.w3.org/2000/svg" xmlns:xlink="http://www.w3.org/1999/xlink" x="0px" y="0px"
	 viewBox="0 0 880 256.8" style="enable-background:new 0 0 880 256.8;" xml:space="preserve">
<style type="text/css">
	.st0{fill:#FFFFFF;}
</style>
<path class="st0" d="M455.8,168.7l26,81.1h-42.4l-24.7-77.1v38.6c-12.1,19.7-32.7,38.9-74.3,38.9c-54.2,0-86.8-34-86.8-90.4V10.1
	h41.2v150.1c0,40.3,18.4,60.4,54.6,60.4c39.8,0,65.3-32.4,65.3-87.5v-123h41.2V168.7z M872.1,249.8h-37.3L816.9,194V218
	c-19.3,26-50.5,33.8-83.3,33.8c-45.6,0-77.8-26.4-77.8-65.7c0-39.3,30.4-61.7,75.5-69.7c75.1-13.4,84.4-17,84.4-42
	c0-28.2-26.3-36.4-56.2-36.4c-30.4,0-52.9,10.7-60.7,38.8h-36.9c5.2-42.6,46.5-71.2,97.6-71.2c58.1,0,93.4,27.3,93.4,76.9v107.4
	L872.1,249.8z M815.7,124c-7.6,7.6-21.4,9.4-74.1,20.1c-26.4,4.9-46.5,14.8-46.5,40.2c0,21.5,17,38,46,38
	c47.8,0,74.5-30.8,74.5-71.1V124z M570.1,67.7h-2.4V10.1h-2.9h-66.5v13.7l28.2,9.1v193.4c0,1.1-0.1,2.1-0.2,3L497.9,241v8.8h109.9
	V241L568,229.6c-0.2-1.2-0.3-2.7-0.3-4.3V90.5c7.5-14.1,13.7-26.5,19.8-35.3c4.2-6.1,11.2-9.8,18.7-9.8h39.6l1.4-1.4V4.9h-8.1
	C608.2,4.9,587.3,27.6,570.1,67.7z M227.8,217.4h10.7v32.2h-19.6c-28.7,0-41.2-10.7-41.7-35.6l-0.1-4.6l-2.6,3.8
	c-18.4,26.4-44.3,37.1-79.1,37.1c-25.8,0-47.5-6.3-63-18.3c-15.6-12.1-23.8-29.5-23.8-50.2c0-23.5,8.1-41.7,24-54.1
	c16.2-12.6,40-19.1,70.8-19.1h71.9V88c0-32.1-22.9-51.3-61.1-51.3c-33.1,0-56.8,15.4-62.3,40.4H16.3C22.5,32.2,59.7,5.4,116,5.4
	c30.2,0,53.7,7.4,70,21.9c16.4,14.6,24.7,35.8,24.7,63v107.4C210.8,212.3,217.3,217.4,227.8,217.4z M175.3,138.1H99.6
	c-17.7,0-31.3,3.4-40.5,10c-9.6,7-14.5,17.5-14.5,31.4c0,12.1,5.1,22.4,14.7,29.7c9.6,7.3,23.1,11.2,39,11.2
	c23.5,0,43.1-6.7,56.8-19.2c13.3-12.3,20.3-29.5,20.3-49.9V138.1z"/>
</svg>
