<?xml version="1.0" encoding="UTF-8"?><svg id="Layer_1" xmlns="http://www.w3.org/2000/svg" viewBox="0 0 879.95907 256.80695"><defs><style>.cls-1{fill:#222428;}</style></defs><path class="cls-1" d="m455.83116,168.7102l25.95953,81.07861h-42.4187l-24.72211-77.05005v38.64795c-12.08575,19.6936-32.67487,38.94067-74.29932,38.94067-54.15955,0-86.83435-34.01953-86.83435-90.4165V10.07836h41.17822v150.07764c0,40.28418,18.35168,60.42383,54.60577,60.42383,39.83636,0,65.34967-32.43433,65.34967-87.48926V10.07836h41.18127v158.63184Zm416.2453,81.07861h-37.28174l-17.91309-55.82886v24.08374c-19.3241,25.97949-50.45483,33.84399-83.3111,33.84399-45.59912,0-77.78448-26.37378-77.78448-65.71094s30.39746-61.69043,75.54889-69.73462c75.09821-13.41064,84.38092-16.9895,84.38092-42.02026,0-28.16479-26.26929-36.44458-56.21912-36.44458-30.44012,0-52.94025,10.65625-60.68719,38.81982h-36.88672c5.18903-42.60571,46.46027-71.21729,97.57391-71.21729,58.11169,0,93.4281,27.26636,93.4281,76.88623v107.43799l19.15161,59.88477Zm-56.3606-125.74731c-7.59937,7.59961-21.35034,9.38745-74.10114,20.11499-26.37396,4.91602-46.48871,14.75098-46.48871,40.23242,0,21.45776,16.98663,37.99683,46.04388,37.99683,47.82892,0,74.54596-30.84521,74.54596-71.07764v-27.2666Zm-245.60767-56.33472h-2.38678V10.07836h-69.37976v13.66455l28.15607,9.06445v193.43311c0,1.12744-.06006,2.11694-.17645,3.0144l-28.45636,11.77734v8.75659h109.94067v-8.75659l-39.76074-11.42603c-.22479-1.23853-.32343-2.66113-.32343-4.32202V90.53075c7.53198-14.07861,13.71448-26.48193,19.78241-35.34692,4.20453-6.14307,11.20825-9.7666,18.65222-9.7666h39.64087l1.43323-1.43335V4.85619h-8.11102c-30.89117,0-51.8324,22.76636-69.01093,62.85059ZM227.81962,217.40966h10.71094v32.22461h-19.63623c-28.73438,0-41.20752-10.65625-41.7085-35.63184l-.09229-4.61914-2.63867,3.79297c-18.38428,26.42871-44.25195,37.12524-79.08008,37.12524-25.77246,0-47.54199-6.32617-62.95557-18.29395-15.59814-12.11133-23.84277-29.46387-23.84277-50.18262,0-23.46777,8.06299-41.67773,23.96484-54.12305,16.15674-12.64453,39.98291-19.05566,70.81738-19.05566h71.94824v-20.65039c0-32.1123-22.8584-51.28418-61.14648-51.28418-33.09912,0-56.82861,15.44141-62.27832,40.38965H16.29863C22.51347,32.18237,59.66191,5.42553,116.04033,5.42553c30.15479,0,53.71924,7.3584,70.03857,21.87109,16.4165,14.59961,24.74072,35.81152,24.74072,63.0459v107.44922c0,14.5459,6.50488,19.61792,17,19.61792Zm-52.5127-79.3562h-75.70459c-17.66797,0-31.29639,3.37402-40.50684,10.0293-9.64502,6.96973-14.53564,17.53125-14.53564,31.3916,0,12.08789,5.0752,22.36523,14.67725,29.72266,9.5874,7.3457,23.05811,11.22852,38.95605,11.22852,23.50928,0,43.14648-6.65332,56.78857-19.24219,13.29688-12.26855,20.3252-29.51953,20.3252-49.8877v-13.24219Z"/></svg>